<svg id="Layer_1" data-name="Layer 1" xmlns="http://www.w3.org/2000/svg" viewBox="0 0 85.56 95.39"><defs><style>.cls-1{fill:#35424b;}</style></defs><title>Box</title><path class="cls-1" d="M51.69,3.11h0l39.15,19.5a3.76,3.76,0,0,1,2,3.33h0v49a3.55,3.55,0,0,1-2.34,3.4L51.69,97.72a3.81,3.81,0,0,1-3.28,0h0L9.32,78.12a3.57,3.57,0,0,1-2-3.22h0v-49a3.79,3.79,0,0,1,2.37-3.47L48.41,3.11a3.46,3.46,0,0,1,3.28,0ZM37.06,16.93h0L69.6,33.23l13.06-6.49L50.07,10.45l-13,6.48ZM17.49,26.74h0L50.07,43,64.7,35.67,32.14,19.4,17.49,26.74ZM14.62,30.2h0V72.58L47.84,89.26V46.84L14.62,30.2ZM52.26,89.26h0L85.53,72.58V30.2C74.44,35.72,63.35,41.3,52.26,46.84V89.26Z" transform="translate(-7.26 -2.7)"/></svg>