<svg id="Layer_1" data-name="Layer 1" xmlns="http://www.w3.org/2000/svg" xmlns:xlink="http://www.w3.org/1999/xlink" viewBox="0 0 420 190"><defs><style>.cls-1{opacity:0.05;}.cls-2{fill:url(#linear-gradient);}.cls-3{opacity:0.15;}.cls-4{fill:url(#linear-gradient-2);}.cls-5{opacity:0.2;}.cls-6{fill:url(#linear-gradient-3);}.cls-7{fill:url(#linear-gradient-4);}.cls-8{fill:url(#linear-gradient-5);}.cls-9{fill:#1a1e37;}.cls-10{fill:#fff;}</style><linearGradient id="linear-gradient" x1="40" y1="75" x2="380" y2="75" gradientUnits="userSpaceOnUse"><stop offset="0" stop-color="#8287ed"/><stop offset="1" stop-color="#45dce5"/></linearGradient><linearGradient id="linear-gradient-2" x1="30" y1="85" x2="390" y2="85" xlink:href="#linear-gradient"/><linearGradient id="linear-gradient-3" x1="20" y1="95" x2="400" y2="95" xlink:href="#linear-gradient"/><linearGradient id="linear-gradient-4" x1="10" y1="105" x2="410" y2="105" xlink:href="#linear-gradient"/><linearGradient id="linear-gradient-5" x1="0" y1="115" x2="420" y2="115" xlink:href="#linear-gradient"/></defs><title>DeliveredBackground</title><g class="cls-1"><rect class="cls-2" x="40" width="340" height="150" rx="5" ry="5"/></g><g class="cls-3"><rect class="cls-4" x="30" y="10" width="360" height="150" rx="5" ry="5"/></g><g class="cls-5"><rect class="cls-6" x="20" y="20" width="380" height="150" rx="5" ry="5"/></g><g class="cls-5"><rect class="cls-7" x="10" y="30" width="400" height="150" rx="5" ry="5"/></g><rect class="cls-8" y="40" width="420" height="150" rx="5" ry="5"/><path class="cls-9" d="M44.5,59.5a25,25,0,1,0,25,25A25,25,0,0,0,44.5,59.5Zm7.38,21.85-7.31,7.31-1.68,1.68h0a.43.43,0,0,1-.63,0L40.5,88.58s0,0,0,0L36.93,85a.44.44,0,0,1,0-.62l1.69-1.7a.43.43,0,0,1,.61,0h0L42.5,86l7-7a.44.44,0,0,1,.63,0h0l1.76,1.75A.45.45,0,0,1,51.88,81.35Z"/><path class="cls-10" d="M89.35,93.75H82.44V74.37h6.91c3.16,0,5.25,1.26,6.28,3.76a15.06,15.06,0,0,1,.89,5.65c0,4.87-1.21,8-3.64,9.21A7.51,7.51,0,0,1,89.35,93.75Zm5-10c0-3.71-.83-6-2.49-6.94a5.07,5.07,0,0,0-2.47-.56H84.59V91.85h4.76Q94.32,91.85,94.31,83.78Z"/><path class="cls-10" d="M109.65,92l.81-.08.06,1.65a40.07,40.07,0,0,1-5.46.45c-2,0-3.44-.58-4.28-1.75s-1.26-3-1.26-5.45q0-7.35,5.85-7.36a5.39,5.39,0,0,1,4.23,1.58c.93,1.06,1.4,2.71,1.4,5l-.12,1.6h-9.24a5.71,5.71,0,0,0,.84,3.44,3.43,3.43,0,0,0,2.93,1.12C106.8,92.18,108.21,92.13,109.65,92Zm-.75-6.07a6.08,6.08,0,0,0-.83-3.64,3.2,3.2,0,0,0-2.69-1.07,3.47,3.47,0,0,0-2.8,1.12,5.73,5.73,0,0,0-1,3.59Z"/><path class="cls-10" d="M114.44,93.75V73.65h2.1v20.1Z"/><path class="cls-10" d="M120.74,76.59V74.15h2.1v2.44Zm0,17.16v-14h2.1v14Z"/><path class="cls-10" d="M125.56,79.75h2.24l3.27,12.18h1l3.39-12.18h2.15l-4,14h-4.2Z"/><path class="cls-10" d="M149.61,92l.81-.08.06,1.65A40.07,40.07,0,0,1,145,94q-3,0-4.29-1.75c-.84-1.17-1.26-3-1.26-5.45q0-7.35,5.85-7.36a5.36,5.36,0,0,1,4.23,1.58c.94,1.06,1.4,2.71,1.4,5l-.11,1.6H141.6a5.71,5.71,0,0,0,.84,3.44,3.43,3.43,0,0,0,2.93,1.12C146.76,92.18,148.17,92.13,149.61,92Zm-.76-6.07A6.08,6.08,0,0,0,148,82.3a3.2,3.2,0,0,0-2.69-1.07,3.46,3.46,0,0,0-2.8,1.12,5.66,5.66,0,0,0-1,3.59Z"/><path class="cls-10" d="M154.23,93.75v-14h2.07v1.9a13.69,13.69,0,0,1,5.12-2.21v2.13a15,15,0,0,0-2.45.7,17.09,17.09,0,0,0-1.94.84l-.7.36V93.75Z"/><path class="cls-10" d="M173.16,92l.81-.08.05,1.65a39.82,39.82,0,0,1-5.46.45q-3,0-4.28-1.75c-.84-1.17-1.26-3-1.26-5.45q0-7.35,5.85-7.36a5.36,5.36,0,0,1,4.23,1.58c.93,1.06,1.4,2.71,1.4,5l-.11,1.6h-9.24a5.71,5.71,0,0,0,.84,3.44,3.41,3.41,0,0,0,2.92,1.12C170.3,92.18,171.72,92.13,173.16,92Zm-.76-6.07a6.08,6.08,0,0,0-.83-3.64,3.18,3.18,0,0,0-2.68-1.07,3.45,3.45,0,0,0-2.8,1.12,5.66,5.66,0,0,0-1,3.59Z"/><path class="cls-10" d="M188.53,73.65v20.1h-2.07v-1A8.57,8.57,0,0,1,182.2,94a6.1,6.1,0,0,1-2-.28,4.05,4.05,0,0,1-1.57-1q-1.51-1.51-1.51-5.58t1.36-5.88q1.35-1.82,4.49-1.81a17.91,17.91,0,0,1,3.45.36V73.65ZM181.25,92a3.64,3.64,0,0,0,1.3.19,6.84,6.84,0,0,0,1.79-.26,11.24,11.24,0,0,0,1.56-.52l.56-.25V81.63a17.76,17.76,0,0,0-3.34-.34,3.18,3.18,0,0,0-3,1.36,8.2,8.2,0,0,0-.84,4.21c0,2.17.32,3.62,1,4.37A2.28,2.28,0,0,0,181.25,92Z"/></svg>