<svg id="Layer_1" data-name="Layer 1" xmlns="http://www.w3.org/2000/svg" xmlns:xlink="http://www.w3.org/1999/xlink" viewBox="0 0 420 190"><defs><style>.cls-1{opacity:0.05;}.cls-2{fill:url(#linear-gradient);}.cls-3{opacity:0.15;}.cls-4{fill:url(#linear-gradient-2);}.cls-5{opacity:0.2;}.cls-6{fill:url(#linear-gradient-3);}.cls-7{fill:url(#linear-gradient-4);}.cls-8{fill:url(#linear-gradient-5);}.cls-9{fill:#fff;}.cls-10{fill:#1a1e37;}</style><linearGradient id="linear-gradient" x1="40" y1="75" x2="380" y2="75" gradientUnits="userSpaceOnUse"><stop offset="0" stop-color="#aa54f8"/><stop offset="1" stop-color="#f6738c"/></linearGradient><linearGradient id="linear-gradient-2" x1="30" y1="85" x2="390" y2="85" xlink:href="#linear-gradient"/><linearGradient id="linear-gradient-3" x1="20" y1="95" x2="400" y2="95" xlink:href="#linear-gradient"/><linearGradient id="linear-gradient-4" x1="10" y1="105" x2="410" y2="105" xlink:href="#linear-gradient"/><linearGradient id="linear-gradient-5" x1="0" y1="115" x2="420" y2="115" xlink:href="#linear-gradient"/></defs><title>ExceptionBackground</title><g class="cls-1"><rect class="cls-2" x="40" width="340" height="150" rx="5" ry="5"/></g><g class="cls-3"><rect class="cls-4" x="30" y="10" width="360" height="150" rx="5" ry="5"/></g><g class="cls-5"><rect class="cls-6" x="20" y="20" width="380" height="150" rx="5" ry="5"/></g><g class="cls-5"><rect class="cls-7" x="10" y="30" width="400" height="150" rx="5" ry="5"/></g><rect class="cls-8" y="40" width="420" height="150" rx="5" ry="5"/><path class="cls-9" d="M82.44,93.75V74.37H94.23v1.91H84.59V83h8v1.88h-8v7h9.64v1.9Z" transform="translate(0 0)"/><path class="cls-9" d="M96.16,79.75h2.29l3.42,5.49,3.42-5.49h2.29l-4.45,6.94,4.42,7.06h-2.29l-3.39-5.46-3.42,5.46H96.16l4.39-7Z" transform="translate(0 0)"/><path class="cls-9" d="M115.11,79.47a23.4,23.4,0,0,1,3.14.34l.67.08-.08,1.71a32.31,32.31,0,0,0-3.31-.25c-1.58,0-2.66.37-3.23,1.13s-.86,2.16-.86,4.2a8.23,8.23,0,0,0,.8,4.27c.53.8,1.64,1.2,3.32,1.2l3.3-.25.09,1.74a29,29,0,0,1-3.89.39c-2.19,0-3.69-.56-4.53-1.68s-1.24-3-1.24-5.67.45-4.53,1.34-5.6S113,79.47,115.11,79.47Z" transform="translate(0 0)"/><path class="cls-9" d="M131.44,92l.81-.08.05,1.65a39.82,39.82,0,0,1-5.46.45q-3,0-4.28-1.75c-.84-1.17-1.26-3-1.26-5.45q0-7.35,5.85-7.36a5.36,5.36,0,0,1,4.23,1.58c.93,1.06,1.4,2.71,1.4,5l-.11,1.6h-9.24a5.71,5.71,0,0,0,.84,3.44,3.41,3.41,0,0,0,2.92,1.12C128.59,92.18,130,92.13,131.44,92Zm-.76-6.07a6,6,0,0,0-.83-3.64,3.18,3.18,0,0,0-2.68-1.07,3.46,3.46,0,0,0-2.8,1.12,5.66,5.66,0,0,0-1,3.59Z" transform="translate(0 0)"/><path class="cls-9" d="M136.06,100V79.75h2.07v1a8.07,8.07,0,0,1,4.2-1.29,4.43,4.43,0,0,1,3.86,1.69c.81,1.13,1.21,3,1.21,5.59s-.48,4.46-1.42,5.59S143.48,94,141.29,94a14.5,14.5,0,0,1-3.13-.31V100Zm6-18.62a6.44,6.44,0,0,0-1.81.28,8.42,8.42,0,0,0-1.52.56l-.53.28V91.9a20.73,20.73,0,0,0,3,.31,3.63,3.63,0,0,0,3.18-1.29,7.52,7.52,0,0,0,.91-4.2,7.73,7.73,0,0,0-.83-4.14A2.73,2.73,0,0,0,142,81.35Z" transform="translate(0 0)"/><path class="cls-9" d="M158,81.57h-4.45v6.69a9.17,9.17,0,0,0,.35,3.17c.23.5.79.75,1.66.75L158,92l.14,1.74a18.67,18.67,0,0,1-2.86.31,3.65,3.65,0,0,1-3-1.07c-.56-.7-.84-2.06-.84-4.06V81.57h-2V79.75h2V75.47h2.07v4.28H158Z" transform="translate(0 0)"/><path class="cls-9" d="M160.56,76.59V74.15h2.1v2.44Zm0,17.16v-14h2.1v14Z" transform="translate(0 0)"/><path class="cls-9" d="M166.07,86.72q0-3.82,1.37-5.54c.92-1.14,2.46-1.71,4.64-1.71s3.71.57,4.62,1.71,1.36,3,1.36,5.54-.43,4.42-1.29,5.57S174.34,94,172.06,94s-3.84-.58-4.7-1.74S166.07,89.28,166.07,86.72Zm2.16,0A9,9,0,0,0,169,91c.49.82,1.53,1.23,3.11,1.23s2.61-.41,3.09-1.22a8.94,8.94,0,0,0,.73-4.3,7.92,7.92,0,0,0-.81-4.24,3.45,3.45,0,0,0-3-1.16,3.49,3.49,0,0,0-3,1.16A7.79,7.79,0,0,0,168.23,86.68Z" transform="translate(0 0)"/><path class="cls-9" d="M183.57,93.75h-2.1v-14h2.07v1a9,9,0,0,1,4.34-1.26c1.87,0,3.13.5,3.77,1.51s1,2.8,1,5.38v7.39h-2.08V86.41a9.53,9.53,0,0,0-.57-4,2.53,2.53,0,0,0-2.45-1.07,7.59,7.59,0,0,0-1.89.26,9.84,9.84,0,0,0-1.53.52l-.53.25Z" transform="translate(0 0)"/><path class="cls-10" d="M44,60A25,25,0,1,0,69,85,25,25,0,0,0,44,60Zm1.92,35a.38.38,0,0,1-.38.38H42.46a.38.38,0,0,1-.38-.38V92.69a.38.38,0,0,1,.38-.38h3.08a.38.38,0,0,1,.38.38Zm0-6.54a.39.39,0,0,1-.38.39H42.46a.39.39,0,0,1-.38-.39v-15a.38.38,0,0,1,.38-.38h3.08a.38.38,0,0,1,.38.38Z" transform="translate(0 0)"/></svg>