<svg id="Layer_1" data-name="Layer 1" xmlns="http://www.w3.org/2000/svg" xmlns:xlink="http://www.w3.org/1999/xlink" viewBox="0 0 420 190"><defs><style>.cls-1{opacity:0.05;}.cls-2{fill:url(#linear-gradient);}.cls-3{opacity:0.15;}.cls-4{fill:url(#linear-gradient-2);}.cls-5{opacity:0.2;}.cls-6{fill:url(#linear-gradient-3);}.cls-7{fill:url(#linear-gradient-4);}.cls-8{fill:url(#linear-gradient-5);}.cls-9{fill:#fff;}.cls-10{fill:#1a1e37;}</style><linearGradient id="linear-gradient" x1="40" y1="75" x2="380" y2="75" gradientUnits="userSpaceOnUse"><stop offset="0" stop-color="#645fe8"/><stop offset="1" stop-color="#c547fa"/></linearGradient><linearGradient id="linear-gradient-2" x1="30" y1="85" x2="390" y2="85" xlink:href="#linear-gradient"/><linearGradient id="linear-gradient-3" x1="20" y1="95" x2="400" y2="95" xlink:href="#linear-gradient"/><linearGradient id="linear-gradient-4" x1="10" y1="105" x2="410" y2="105" xlink:href="#linear-gradient"/><linearGradient id="linear-gradient-5" x1="0" y1="115" x2="420" y2="115" xlink:href="#linear-gradient"/></defs><title>InTransitBackground</title><g class="cls-1"><rect class="cls-2" x="40" width="340" height="150" rx="5" ry="5"/></g><g class="cls-3"><rect class="cls-4" x="30" y="10" width="360" height="150" rx="5" ry="5"/></g><g class="cls-5"><rect class="cls-6" x="20" y="20" width="380" height="150" rx="5" ry="5"/></g><g class="cls-5"><rect class="cls-7" x="10" y="30" width="400" height="150" rx="5" ry="5"/></g><rect class="cls-8" y="40" width="420" height="150" rx="5" ry="5"/><path class="cls-9" d="M82.44,93.75V74.37h2.15V93.75Z" transform="translate(0 0)"/><path class="cls-9" d="M91.06,93.75H89v-14H91v1a9,9,0,0,1,4.34-1.26c1.87,0,3.12.5,3.77,1.51s1,2.8,1,5.38v7.39H98V86.41a9.53,9.53,0,0,0-.57-4A2.53,2.53,0,0,0,95,81.35a7.59,7.59,0,0,0-1.89.26,9.84,9.84,0,0,0-1.53.52l-.53.25Z" transform="translate(0 0)"/><path class="cls-9" d="M108.5,76.31V74.37h14v1.94h-5.9V93.75h-2.13V76.31Z" transform="translate(0 0)"/><path class="cls-9" d="M122.48,93.75v-14h2.07v1.9a13.69,13.69,0,0,1,5.12-2.21v2.13a15,15,0,0,0-2.45.7,16.31,16.31,0,0,0-1.94.84l-.7.36V93.75Z" transform="translate(0 0)"/><path class="cls-9" d="M142.05,84v7.17q.07,1,1.62,1.23L143.59,94a4.48,4.48,0,0,1-3.33-1.12,12.27,12.27,0,0,1-5,1.12,3.79,3.79,0,0,1-2.94-1.09,4.43,4.43,0,0,1-1-3.14,4,4,0,0,1,1-3,5.54,5.54,0,0,1,3.25-1.19l4.4-.42V84a2.86,2.86,0,0,0-.62-2,2.27,2.27,0,0,0-1.68-.61,39.67,39.67,0,0,0-4.65.28l-.86.08-.09-1.59a28.25,28.25,0,0,1,5.46-.62A3.91,3.91,0,0,1,142.05,84Zm-8.63,5.71q0,2.58,2.13,2.58a11.3,11.3,0,0,0,3.75-.65l.65-.22V86.78l-4.15.39a2.74,2.74,0,0,0-1.82.73A2.59,2.59,0,0,0,133.42,89.69Z" transform="translate(0 0)"/><path class="cls-9" d="M148.29,93.75h-2.1v-14h2.07v1a9,9,0,0,1,4.34-1.26c1.87,0,3.13.5,3.77,1.51s1,2.8,1,5.38v7.39h-2.08V86.41a9.53,9.53,0,0,0-.57-4,2.53,2.53,0,0,0-2.45-1.07,7.59,7.59,0,0,0-1.89.26,9.84,9.84,0,0,0-1.53.52l-.53.25Z" transform="translate(0 0)"/><path class="cls-9" d="M165.62,81.35c-2,0-3.05.71-3.05,2.12a1.46,1.46,0,0,0,.7,1.39,12,12,0,0,0,3.19.84A8.56,8.56,0,0,1,170,86.92a3.49,3.49,0,0,1,1,2.94A3.65,3.65,0,0,1,169.64,93a6.83,6.83,0,0,1-4,1,25.36,25.36,0,0,1-4.08-.39l-.84-.14.11-1.82a35,35,0,0,0,4.81.47,4.88,4.88,0,0,0,2.48-.51,1.89,1.89,0,0,0,.86-1.74,1.77,1.77,0,0,0-.73-1.65,10.72,10.72,0,0,0-3.19-.83,8.29,8.29,0,0,1-3.5-1.15,3.25,3.25,0,0,1-1-2.8,3.4,3.4,0,0,1,1.44-3,6.28,6.28,0,0,1,3.6-1,29.44,29.44,0,0,1,4.28.39l.79.14-.06,1.79A37.56,37.56,0,0,0,165.62,81.35Z" transform="translate(0 0)"/><path class="cls-9" d="M174.25,76.59V74.15h2.1v2.44Zm0,17.16v-14h2.1v14Z" transform="translate(0 0)"/><path class="cls-9" d="M187.63,81.57h-4.45v6.69a9.17,9.17,0,0,0,.35,3.17c.23.5.79.75,1.66.75l2.5-.17.14,1.74a18.67,18.67,0,0,1-2.86.31A3.65,3.65,0,0,1,182,93c-.56-.7-.84-2.06-.84-4.06V81.57h-2V79.75h2V75.47h2.07v4.28h4.45Z" transform="translate(0 0)"/><path class="cls-10" d="M44,60A25,25,0,1,0,69,85,25,25,0,0,0,44,60ZM35.54,94.81a2.89,2.89,0,1,1,2.88-2.89h0A2.88,2.88,0,0,1,35.54,94.81Zm16.15,0a2.89,2.89,0,1,1,2.89-2.89h0A2.89,2.89,0,0,1,51.69,94.81Zm5.77-2.89H55.15a3.46,3.46,0,0,0-6.92,0H39a3.46,3.46,0,1,0-6.92,0H30.15V85.77l5.77-7.31H39V75H57.46Z" transform="translate(0 0)"/></svg>