<svg id="Layer_1" data-name="Layer 1" xmlns="http://www.w3.org/2000/svg" xmlns:xlink="http://www.w3.org/1999/xlink" viewBox="0 0 420 190"><defs><style>.cls-1{opacity:0.05;}.cls-2{fill:url(#linear-gradient);}.cls-3{opacity:0.15;}.cls-4{fill:url(#linear-gradient-2);}.cls-5{opacity:0.2;}.cls-6{fill:url(#linear-gradient-3);}.cls-7{fill:url(#linear-gradient-4);}.cls-8{fill:url(#linear-gradient-5);}.cls-9{fill:#fff;}.cls-10{fill:#1a1e37;}</style><linearGradient id="linear-gradient" x1="40" y1="75" x2="380" y2="75" gradientUnits="userSpaceOnUse"><stop offset="0" stop-color="#ff6fb4"/><stop offset="1" stop-color="#ff946e"/></linearGradient><linearGradient id="linear-gradient-2" x1="30" y1="85" x2="390" y2="85" xlink:href="#linear-gradient"/><linearGradient id="linear-gradient-3" x1="20" y1="95" x2="400" y2="95" xlink:href="#linear-gradient"/><linearGradient id="linear-gradient-4" x1="10" y1="105" x2="410" y2="105" xlink:href="#linear-gradient"/><linearGradient id="linear-gradient-5" x1="0" y1="115" x2="420" y2="115" xlink:href="#linear-gradient"/></defs><title>OutForDeliveryBackground</title><g class="cls-1"><rect class="cls-2" x="40" width="340" height="150" rx="5" ry="5"/></g><g class="cls-3"><rect class="cls-4" x="30" y="10" width="360" height="150" rx="5" ry="5"/></g><g class="cls-5"><rect class="cls-6" x="20" y="20" width="380" height="150" rx="5" ry="5"/></g><g class="cls-5"><rect class="cls-7" x="10" y="30" width="400" height="150" rx="5" ry="5"/></g><rect class="cls-8" y="40" width="420" height="150" rx="5" ry="5"/><path class="cls-9" d="M97,84.2q0,5.19-1.65,7.51c-1.1,1.55-3.11,2.32-6,2.32s-4.9-.79-6-2.38-1.66-4.08-1.66-7.49.56-5.94,1.68-7.59,3.11-2.48,6-2.48,4.85.83,6,2.47S97,80.75,97,84.2Zm-13.1,0q0,4.25,1.12,6.11t4.32,1.87q3.21,0,4.31-1.82c.74-1.22,1.11-3.25,1.11-6.11s-.38-4.93-1.15-6.24-2.2-2-4.3-2-3.52.65-4.28,1.94S83.87,81.31,83.87,84.15Z" transform="translate(0)"/><path class="cls-9" d="M109.29,79.75h2.1v14h-2.1v-1A8,8,0,0,1,105.14,94c-1.9,0-3.16-.49-3.79-1.48s-.94-2.82-.94-5.49V79.75h2.1V87a10.4,10.4,0,0,0,.53,4.09c.36.69,1.16,1,2.41,1a6.87,6.87,0,0,0,1.88-.26,8.46,8.46,0,0,0,1.45-.52l.51-.25Z" transform="translate(0)"/><path class="cls-9" d="M122.67,81.57h-4.45v6.69a9.17,9.17,0,0,0,.35,3.17c.23.5.79.75,1.67.75l2.49-.17.14,1.74a18.55,18.55,0,0,1-2.86.31A3.66,3.66,0,0,1,117,93c-.56-.7-.84-2.06-.84-4.06V81.57h-2V79.75h2V75.47h2.07v4.28h4.45Z" transform="translate(0)"/><path class="cls-9" d="M131.77,93.75V74.37h11.59v1.91h-9.43v7.56h8v1.9h-8v8Z" transform="translate(0)"/><path class="cls-9" d="M145,86.72c0-2.55.45-4.4,1.37-5.54s2.46-1.71,4.63-1.71,3.72.57,4.62,1.71,1.36,3,1.36,5.54-.43,4.42-1.29,5.57S153.29,94,151,94s-3.85-.58-4.71-1.74S145,89.28,145,86.72Zm2.15,0a9,9,0,0,0,.74,4.3c.5.82,1.53,1.23,3.11,1.23s2.61-.41,3.1-1.22a9.09,9.09,0,0,0,.72-4.3,7.92,7.92,0,0,0-.81-4.24,3.44,3.44,0,0,0-3-1.16,3.48,3.48,0,0,0-3,1.16A7.77,7.77,0,0,0,147.17,86.68Z" transform="translate(0)"/><path class="cls-9" d="M160.42,93.75v-14h2.07v1.9a13.69,13.69,0,0,1,5.12-2.21v2.13a15,15,0,0,0-2.45.7,16.31,16.31,0,0,0-1.94.84l-.7.36V93.75Z" transform="translate(0)"/><path class="cls-9" d="M183.54,93.75h-6.91V74.37h6.91c3.16,0,5.25,1.26,6.28,3.76a15.06,15.06,0,0,1,.89,5.65c0,4.87-1.21,8-3.64,9.21A7.51,7.51,0,0,1,183.54,93.75Zm5-10c0-3.71-.83-6-2.49-6.94a5.07,5.07,0,0,0-2.47-.56h-4.76V91.85h4.76Q188.51,91.85,188.5,83.78Z" transform="translate(0)"/><path class="cls-9" d="M203.84,92l.81-.08.06,1.65a40.07,40.07,0,0,1-5.46.45c-2,0-3.44-.58-4.28-1.75s-1.26-3-1.26-5.45q0-7.35,5.85-7.36a5.39,5.39,0,0,1,4.23,1.58c.93,1.06,1.4,2.71,1.4,5l-.12,1.6h-9.24a5.71,5.71,0,0,0,.84,3.44,3.43,3.43,0,0,0,2.93,1.12C201,92.18,202.41,92.13,203.84,92Zm-.75-6.07a6.08,6.08,0,0,0-.83-3.64,3.2,3.2,0,0,0-2.69-1.07,3.47,3.47,0,0,0-2.8,1.12,5.73,5.73,0,0,0-1,3.59Z" transform="translate(0)"/><path class="cls-9" d="M208.63,93.75V73.65h2.1v20.1Z" transform="translate(0)"/><path class="cls-9" d="M214.93,76.59V74.15H217v2.44Zm0,17.16v-14H217v14Z" transform="translate(0)"/><path class="cls-9" d="M219.75,79.75H222l3.27,12.18h1l3.39-12.18h2.15l-4,14h-4.2Z" transform="translate(0)"/><path class="cls-9" d="M243.8,92l.81-.08.06,1.65a40.07,40.07,0,0,1-5.46.45q-3,0-4.29-1.75c-.84-1.17-1.26-3-1.26-5.45q0-7.35,5.85-7.36a5.36,5.36,0,0,1,4.23,1.58c.94,1.06,1.4,2.71,1.4,5l-.11,1.6h-9.24a5.71,5.71,0,0,0,.84,3.44,3.43,3.43,0,0,0,2.93,1.12C241,92.18,242.36,92.13,243.8,92ZM243,85.94a6.08,6.08,0,0,0-.82-3.64,3.2,3.2,0,0,0-2.69-1.07,3.46,3.46,0,0,0-2.8,1.12,5.66,5.66,0,0,0-1,3.59Z" transform="translate(0)"/><path class="cls-9" d="M248.42,93.75v-14h2.07v1.9a13.69,13.69,0,0,1,5.12-2.21v2.13a15,15,0,0,0-2.45.7,17.09,17.09,0,0,0-1.94.84l-.7.36V93.75Z" transform="translate(0)"/><path class="cls-9" d="M256.79,79.75h2.1l3.5,12.18h.92l3.53-12.18h2.1L263.12,100H261l1.82-6.22h-2.07Z" transform="translate(0)"/><path class="cls-10" d="M44,60A25,25,0,1,0,69,85,25,25,0,0,0,44,60Zm-.83,36.15-9.55-5.38V80.38l9.55,5.39Zm.65-11.53-8.92-5.3,9.52-5.45,8.93,5.3Zm10.56,6.13-9.55,5.39V85.75l9.55-5.38Z" transform="translate(0)"/></svg>