<svg id="Layer_1" data-name="Layer 1" xmlns="http://www.w3.org/2000/svg" xmlns:xlink="http://www.w3.org/1999/xlink" viewBox="0 0 747.61 126.01"><defs><style>.cls-1{fill:none;}.cls-2{fill:#fff;}.cls-3{fill:#5ec8db;}.cls-4{clip-path:url(#clip-path);}</style><clipPath id="clip-path" transform="translate(-13.73 -14)"><rect class="cls-1" x="14.93" y="62.17" width="40.49" height="68.68" transform="translate(78.55 3.39) rotate(45)"/></clipPath></defs><title>RouteLogoKionaRowWhite</title><path class="cls-2" d="M329.29,133.21h-15L278.94,83.28h13.44a52.68,52.68,0,0,0,9.45-.72,34,34,0,0,0,5.72-1.43,15.51,15.51,0,0,0,7.08-5.93,14.26,14.26,0,0,0,2.5-7.66A13,13,0,0,0,314.7,60a17.72,17.72,0,0,0-7-5.72,24,24,0,0,0-10.58-2.22H275.5l.29,81.12H263.63V40.08h33.48a36.33,36.33,0,0,1,12.58,2.14A31.1,31.1,0,0,1,320,48.37a28,28,0,0,1,6.66,8.87A24,24,0,0,1,329,67.54a24.33,24.33,0,0,1-5.15,15.17A28.65,28.65,0,0,1,318.64,88a34.33,34.33,0,0,1-6.37,4,28.12,28.12,0,0,1-9.87,2Z" transform="translate(-13.73 -14)"/><path class="cls-2" d="M405.54,134.07a45.71,45.71,0,0,1-23.67-6.37,47.52,47.52,0,0,1-23.39-41.13,46.55,46.55,0,0,1,6.29-23.75,47.2,47.2,0,0,1,17.1-17.24,47,47,0,0,1,47.21,0,47.77,47.77,0,0,1,17.17,17.24,47.66,47.66,0,0,1,0,47.57,47.43,47.43,0,0,1-17.17,17.31A45.49,45.49,0,0,1,405.54,134.07Zm0-83a34,34,0,0,0-17.66,4.79,35.51,35.51,0,0,0-12.81,12.95,36,36,0,0,0,0,35.62,35.43,35.43,0,0,0,12.81,13,35,35,0,0,0,35.33,0,35.57,35.57,0,0,0,17.53-30.83A34.87,34.87,0,0,0,436,68.83a35.51,35.51,0,0,0-12.81-12.95A34.07,34.07,0,0,0,405.54,51.09Z" transform="translate(-13.73 -14)"/><path class="cls-2" d="M522.71,134.07a35.71,35.71,0,0,1-14-2.79,34.05,34.05,0,0,1-11.66-8.09,35.5,35.5,0,0,1-7.87-11.8,36.91,36.91,0,0,1-2.72-14.09V40.08h11.88V97.3a25.18,25.18,0,0,0,1.86,9.58,23.9,23.9,0,0,0,5.29,8q7.59,7.29,17.17,7.29a23,23,0,0,0,9.3-1.93,25.45,25.45,0,0,0,7.87-5.36,23.9,23.9,0,0,0,5.29-8A25.18,25.18,0,0,0,547,97.3V40.08H558.9V97.3a36.83,36.83,0,0,1-10.44,25.89,35.28,35.28,0,0,1-25.75,10.88Z" transform="translate(-13.73 -14)"/><path class="cls-2" d="M668.06,40.08v12H636.44v81.12H624.28V52.09H592.67v-12Z" transform="translate(-13.73 -14)"/><path class="cls-2" d="M701.82,133.21V40.08h59.51v12H713.69V80.56h36.48v12H713.69v28.75h47.64v11.88Z" transform="translate(-13.73 -14)"/><path class="cls-3" d="M205,99.71,168,61.8,149.6,43.18s-16.34-16.57-22.93-22-11.57-6.59-11.57-6.59-12-4.08-28.16,9.54c0,0-16.34,14.08-19.29,17.25s-17,16.12-17,16.12S70.37,61.8,85.81,77.24c0,0,7.72,7.26,11.35,11.35S121,112.65,121,112.65l17.71,16.8s15.89,15,29.74,4.09S205,99.71,205,99.71Z" transform="translate(-13.73 -14)"/><g class="cls-4"><path class="cls-3" d="M13.73,109.59c0-17.43,13.62-30.64,30.87-32a29.32,29.32,0,0,1,18.39,5c8.5,5.71,12.45,17,12.49,27.93.06,17.42-12,29.51-29.29,29.51S13.73,127,13.73,109.59Z" transform="translate(-13.73 -14)"/></g></svg>