<svg id="Layer_1" data-name="Layer 1" xmlns="http://www.w3.org/2000/svg" viewBox="0 0 90.57 95.39"><defs><style>.cls-1{fill:#35424b;}</style></defs><title>Shield</title><path class="cls-1" d="M51.79,96.85a3.73,3.73,0,0,1-3.23,0C21,83.57,4.85,53.68,4.85,23.59c0-.63,0-1.48.05-2.68,0-1,.06-1.88.11-2.6a3.71,3.71,0,0,1,3.25-3.57,9.36,9.36,0,0,0,8.23-9.17V5.42a3.64,3.64,0,0,1,3.69-3.59h60a3.61,3.61,0,0,1,3.65,3.59A9.35,9.35,0,0,0,92,14.74a3.7,3.7,0,0,1,3.23,3.44c0,.75.08,1.66.11,2.73s0,2.05,0,2.68c0,30.09-16.14,59.93-43.63,73.26ZM71.65,30.57h0a3.67,3.67,0,1,1,5.2,5.18L50.33,62.28a3.66,3.66,0,0,1-5.21,0L30.62,47.77a3.66,3.66,0,0,1,0-5.18,3.78,3.78,0,0,1,5.23,0l11.88,11.9L71.65,30.57ZM50.17,89.48h0C74.25,77,88.08,50.3,88.08,23.59l0-2.24A16.93,16.93,0,0,1,76.85,9.14H23.47A16.88,16.88,0,0,1,12.22,21.35v2.24C12.22,50.3,26,77,50.17,89.48Z" transform="translate(-4.85 -1.83)"/></svg>