<svg id="Layer_1" data-name="Layer 1" xmlns="http://www.w3.org/2000/svg" viewBox="0 0 95.39 95.39"><defs><style>.cls-1{fill:#35424b;}</style></defs><title>UserPlusIcon</title><path class="cls-1" d="M9.56,93.72a3.67,3.67,0,1,1-7.34,0A20.63,20.63,0,0,1,8.78,78.39a30.07,30.07,0,0,1,16.91-7.67,3.75,3.75,0,0,0,2.21-.91v-.06l.06,0a2.16,2.16,0,0,0,.59-1.09c-3.43-2.84-5.05-6.76-6.35-10a17.64,17.64,0,0,0-1.5-3.3l-.06,0L20.38,55a20.23,20.23,0,0,1-4.68-7c-1.15-3-1.43-6.24.31-9.26a29.42,29.42,0,0,1-1.4-9c-.11-8.8,3-18.45,10.61-23.53,4.16-2.81,9.21-4.11,15-4.24a40.84,40.84,0,0,1,7.86.45c3.22.62,6.3,1.87,8.17,4.5,3.85-.39,7.21,1.79,9.89,4.92a28.29,28.29,0,0,1,6,12.38,26.48,26.48,0,0,1,0,7.6,40.79,40.79,0,0,1-1.28,6,10.21,10.21,0,0,1,1.62,5.16,8.68,8.68,0,0,1-.37,3,25.76,25.76,0,1,1-8.71,1.46c1.69-2.5,2.52-4.14.67-6.58a3.68,3.68,0,0,1-.7-3.41,37.39,37.39,0,0,0,1.51-6.56,20,20,0,0,0,0-5.57,21.55,21.55,0,0,0-4.37-8.79c-1.25-1.43-2.61-2.45-3.7-2.29h0a6.54,6.54,0,0,1-6.51-3c-.57-.81-2-1.33-3.58-1.62a37.39,37.39,0,0,0-6.46-.33c-4.34.07-8.11,1-11,3a15.09,15.09,0,0,0-5.85,8l0,.15a27,27,0,0,0-1.46,9.27,19.3,19.3,0,0,0,1.46,7.75,4,4,0,0,1,.36,1.95v.13h0c-.26,2.6-2.49,2.47-1.19,5.78l-.06.1h.06a12.09,12.09,0,0,0,2.78,4.19l0,0h.05l.08,0C27.15,51.26,28,53.36,29,55.83c1.1,2.73,2.4,6,4.89,7.58a3.74,3.74,0,0,1,2,3.33v1.37A9.8,9.8,0,0,1,33.13,75h-.05a11,11,0,0,1-6.77,3.12A21.7,21.7,0,0,0,13.83,83.7a13.44,13.44,0,0,0-4.27,10ZM81.74,69.49h0A2.24,2.24,0,0,1,84,71.73a2.21,2.21,0,0,1-2.24,2.16H74.11v7.63A2.18,2.18,0,0,1,72,83.73a2.22,2.22,0,0,1-2.24-2.21V73.89H62.12a2.15,2.15,0,0,1-2.19-2.16,2.18,2.18,0,0,1,2.19-2.24h7.59V61.87A2.22,2.22,0,0,1,72,59.66a2.18,2.18,0,0,1,2.16,2.21v7.62ZM72,53.36h0A18.35,18.35,0,1,0,90.27,71.73,18.42,18.42,0,0,0,72,53.36Z" transform="translate(-2.22 -2)"/></svg>